<svg width="510" height="228" viewBox="0 0 510 228" fill="none" xmlns="http://www.w3.org/2000/svg">
<path fill-rule="evenodd" clip-rule="evenodd" d="M452.554 29.1377C452.147 47.319 465.056 55.8947 465.056 55.8947C465.056 55.8947 478.567 46.0173 478.96 28.3016C479.361 10.5546 464.512 0.140747 464.512 0.140747C464.512 0.140747 452.95 10.9536 452.554 29.1377ZM428.214 72.3701C433.551 89.2634 449.256 94.8674 449.256 94.8674C449.256 94.8674 459.274 82.9369 453.812 65.5968C448.327 48.2615 434.239 41.2247 434.239 41.2247C434.239 41.2247 422.888 55.4795 428.214 72.3701ZM481.386 63.9453C471.009 78.8746 477.012 93.2423 477.012 93.2423C477.012 93.2423 493.686 92.5362 503.778 77.9664C513.901 63.4048 507.326 46.4479 507.326 46.4479C507.326 46.4479 491.756 49.0029 481.386 63.9453ZM442.52 113.498C445.685 131.408 434.208 141.942 434.208 141.942C434.208 141.942 419.355 134.32 416.265 116.878C413.211 99.4231 426.299 86.773 426.299 86.773C426.299 86.773 439.352 95.5995 442.52 113.498ZM416.431 144.777C414.952 126.627 402.796 116.61 402.796 116.61C402.796 116.61 388.576 127.974 390.017 145.644C391.457 163.315 405.499 172.306 405.499 172.306C405.499 172.306 417.902 162.914 416.431 144.777ZM367.905 200.569C367.905 200.569 357.029 187.89 360.715 170.531C364.41 153.175 381.289 146.401 381.289 146.401C381.289 146.401 390.035 159.526 386.26 177.341C382.475 195.154 367.905 200.569 367.905 200.569ZM467.289 129.531C467.289 129.531 465.793 114.013 480.06 102.808C494.361 91.5999 509.967 93.7586 509.967 93.7586C509.967 93.7586 511.281 111.943 497.345 122.868C483.406 133.804 467.289 129.531 467.289 129.531ZM463.914 140.358C447.515 148.121 445.546 163.593 445.546 163.593C445.546 163.593 460.322 171.34 476.305 163.801C492.288 156.261 495.036 138.216 495.036 138.216C495.036 138.216 480.318 132.619 463.914 140.358ZM419.353 189.56C419.353 189.56 425.884 175.388 443.833 172.99C461.806 170.587 474.117 180.399 474.117 180.399C474.117 180.399 466.064 196.767 448.574 199.109C431.071 201.459 419.353 189.56 419.353 189.56ZM437.281 211.245C437.281 211.245 426.191 200.028 408.094 200.241C390.005 200.468 381.868 213.751 381.868 213.751C381.868 213.751 392.076 226.978 409.714 226.776C427.367 226.522 437.281 211.245 437.281 211.245ZM460.586 65.6003L469.081 63.9098C469.254 64.8388 485.707 157.391 352.617 221.399L348.924 213.583C475.608 152.63 461.266 69.1122 460.586 65.6003ZM28.6158 64.6765C38.9929 79.6057 32.9903 93.9735 32.9903 93.9735C32.9903 93.9735 16.3165 93.2674 6.22456 78.6975C-3.89843 64.1359 2.67661 47.1791 2.67661 47.1791C2.67661 47.1791 18.2464 49.734 28.6158 64.6765ZM60.7464 95.5984C60.7464 95.5984 76.4512 89.9944 81.7881 73.1011C87.1146 56.2105 75.763 41.9558 75.763 41.9558C75.763 41.9558 61.6751 48.9925 56.1901 66.3278C50.7286 83.6679 60.7464 95.5984 60.7464 95.5984ZM75.7939 142.673C75.7939 142.673 64.3175 132.139 67.4825 114.229C70.6504 96.3307 83.7032 87.5042 83.7032 87.5042C83.7032 87.5042 96.7908 100.154 93.7372 117.609C90.647 135.051 75.7939 142.673 75.7939 142.673ZM107.208 117.341C107.208 117.341 95.0518 127.358 93.5731 145.508C92.1019 163.645 104.505 173.037 104.505 173.037C104.505 173.037 118.547 164.046 119.988 146.375C121.428 128.705 107.208 117.341 107.208 117.341ZM149.288 171.262C152.973 188.621 142.097 201.3 142.097 201.3C142.097 201.3 127.527 195.885 123.742 178.072C119.967 160.257 128.714 147.132 128.714 147.132C128.714 147.132 145.592 153.906 149.288 171.262ZM44.9445 56.6257C44.9445 56.6257 57.8535 48.05 57.4465 29.8687C57.05 11.6847 45.4878 0.871766 45.4878 0.871766C45.4878 0.871766 30.6387 11.2856 31.0403 29.0326C31.4336 46.7483 44.9445 56.6257 44.9445 56.6257ZM29.9399 103.539C44.2067 114.744 42.7113 130.262 42.7113 130.262C42.7113 130.262 26.5942 134.535 12.6552 123.6C-1.28097 112.674 0.0330789 94.4898 0.0330789 94.4898C0.0330789 94.4898 15.6393 92.3311 29.9399 103.539ZM64.456 164.325C64.456 164.325 62.4867 148.852 46.0878 141.089C29.6841 133.35 14.9659 138.947 14.9659 138.947C14.9659 138.947 17.7137 156.993 33.6972 164.532C49.6806 172.071 64.456 164.325 64.456 164.325ZM66.1724 173.721C84.1217 176.119 90.6523 190.291 90.6523 190.291C90.6523 190.291 78.9339 202.19 61.4308 199.84C43.9408 197.498 35.8886 181.13 35.8886 181.13C35.8886 181.13 48.1996 171.318 66.1724 173.721ZM101.908 200.973C83.8111 200.759 72.7208 211.976 72.7208 211.976C72.7208 211.976 82.6355 227.253 100.288 227.507C117.926 227.709 128.134 214.483 128.134 214.483C128.134 214.483 119.997 201.199 101.908 200.973ZM40.9222 64.6409L49.4177 66.3314C48.737 69.8433 34.3951 153.361 161.079 214.314L157.387 222.13C24.2963 158.122 40.7491 65.57 40.9222 64.6409Z" fill="url(#paint0_linear)"/>
<defs>
<linearGradient id="paint0_linear" x1="223.814" y1="0.140747" x2="223.814" y2="227.509" gradientUnits="userSpaceOnUse">
<stop stop-color="#FFD600"/>
<stop offset="0.0001" stop-color="#FF6400"/>
<stop offset="1" stop-color="white"/>
</linearGradient>
</defs>
</svg>
